<svg xmlns="http://www.w3.org/2000/svg" viewBox="0 0 180 48" role="img" aria-labelledby="logo-dark-title">
  <title id="logo-dark-title">Go Tool Dark Logo</title>
  <defs>
    <linearGradient id="logo-dark-mark" x1="8" y1="8" x2="40" y2="40" gradientUnits="userSpaceOnUse">
      <stop stop-color="#b69dff" />
      <stop offset="1" stop-color="#74dcff" />
    </linearGradient>
    <linearGradient id="logo-dark-text" x1="64" y1="14" x2="170" y2="34" gradientUnits="userSpaceOnUse">
      <stop stop-color="#d4c5ff" />
      <stop offset="1" stop-color="#9be8ff" />
    </linearGradient>
  </defs>
  <rect x="8" y="8" width="32" height="32" rx="9" fill="#0f172a" />
  <path
    fill="url(#logo-dark-mark)"
    d="M16 19a3 3 0 0 1 3-3h10a3 3 0 1 1 0 6h-5v4h5a3 3 0 1 1 0 6H19a3 3 0 1 1 0-6h5v-4h-5a3 3 0 0 1-3-3Z"
  />
  <path
    fill="url(#logo-dark-text)"
    d="M62.3 31.7c-6.7 0-11.6-4.8-11.6-11.2 0-6.4 4.9-11.2 11.6-11.2 4.7 0 8.7 2.3 10.4 6l-4.3 2.2c-1-2.1-3.1-3.3-6.1-3.3-3.9 0-6.8 2.8-6.8 6.3s2.9 6.3 6.8 6.3c3.1 0 5.3-1.3 6.3-3.8H62v-4.2h11.8v2.3c0 6-4.7 10.6-11.5 10.6Zm28.4-.1c-6.3 0-11-4.8-11-11.1s4.7-11.1 11-11.1c6.2 0 11 4.8 11 11.1s-4.8 11.1-11 11.1Zm0-4.8c3.6 0 6.1-2.7 6.1-6.3 0-3.6-2.5-6.3-6.1-6.3-3.7 0-6.2 2.7-6.2 6.3 0 3.6 2.5 6.3 6.2 6.3Zm19.8 4.3V15.5h-5.9v-4.8H121v4.8h-5.6v15.6h-4.9Zm13.6 0V10.7h4.9v20.4h-4.9Zm18.4.5c-5.9 0-10.3-4.8-10.3-11.1s4.4-11.1 10.3-11.1c4.6 0 8.5 2.5 9.9 6.4l-4.2 2.1c-.8-2.2-2.8-3.6-5.7-3.6-3.3 0-5.4 2.6-5.4 6.2s2.1 6.2 5.4 6.2c2.9 0 5-1.5 5.7-3.8l4.2 2.1c-1.4 4-5.3 6.6-9.9 6.6Z"
  />
</svg>
